<svg xmlns="http://www.w3.org/2000/svg" width="2211" height="2211" version="1.2"><style>.s2{fill:#be6700}.s3{fill:#100}.s4{fill:#a29e5e}</style><g id="Layer_4"><path id="Layer" d="M-345-1163.9h2899.3v4537.4H-345z" style="fill:#f6f5de;stroke:#100;stroke-width:99.8"/></g><g id="atom_1_"><g id="atom"><path d="M1105.7 2015.9c-501.9 0-907.5-406.9-907.5-910.4s405.6-910.4 907.5-910.4 907.5 406.9 907.5 910.4-405.6 910.4-907.5 910.4z" style="fill:none;stroke:#000;stroke-width:103.8"/><path d="M1105.7 1630.3c-289.3 0-523.1-234.6-523.1-524.8 0-290.2 233.8-524.8 523.1-524.8s523.1 234.6 523.1 524.8c0 290.2-233.8 524.8-523.1 524.8zM2042.9 541c0 123.2-99.1 222.6-221.9 222.6-122.8 0-221.9-99.4-221.9-222.6 0-123.2 99.1-222.6 221.9-222.6 121.9-.1 221.9 99.3 221.9 222.6z" class="s2"/></g></g><g id="title"><path fill-rule="evenodd" d="m588.9 2744.8 45.5-213h30.3l45.5 213h-30.3l-11.4-53.2h-37.9l-11.4 53.2zm45.6-76.1h30.3l-15.1-91.3z" class="s3"/><path d="M764.2 2746.9c-12 0-20.6-3-26-9.2-5.4-6.1-8.2-15.3-8.4-27.7v-94.6h-15.2v-22.8h15.2v-53.2h30.3v53.2h22.7v22.8h-22.7v88.8c0 6.1.8 10.6 2.5 13.4 1.7 2.9 5 4.3 10.1 4.3q3.3 0 10.1-1.2v24.7c-7.4 1-13.7 1.5-18.6 1.5z" class="s3"/><path fill-rule="evenodd" d="M877.9 2732.7c-7 9.5-18.6 14.3-35 14.3-16.2 0-27.9-4.8-34.9-14.3-7.1-9.5-10.6-23.2-10.6-41.1V2646c0-17.9 3.5-31.6 10.6-41.1 7-9.5 18.6-14.3 34.9-14.3 16.3 0 28 4.8 35 14.3 7.1 9.5 10.6 23.2 10.6 41.1v45.6c0 17.9-3.5 31.6-10.6 41.1zm-40.5-11.7c1.6.6 3.4 1 5.5 1s4-.3 5.6-1c1.6-.6 3-1.4 4-2.3 1.1-.9 2-2.3 2.7-4 .7-1.8 1.3-3.3 1.7-4.7.4-1.3.7-3.3.8-5.8q.3-3.8.3-6c0-1.5.1-3.7.1-6.6V2646c0-2.9 0-5.1-.1-6.6q0-2.2-.3-6c-.2-2.5-.4-4.5-.8-5.8-.4-1.3-1-2.9-1.7-4.7-.7-1.8-1.6-3.1-2.7-4a14 14 0 0 0-4-2.3c-1.6-.6-3.5-1-5.6-1-2.1 0-3.9.3-5.5 1-1.6.6-3 1.4-4 2.3-1.1.9-2 2.3-2.7 4-.7 1.8-1.3 3.3-1.7 4.7-.4 1.3-.7 3.3-.8 5.8q-.3 3.8-.3 6c0 1.5-.1 3.7-.1 6.6v45.6c0 2.9 0 5.1.1 6.6q0 2.2.3 6c.2 2.5.4 4.5.8 5.8.4 1.3 1 2.9 1.7 4.7.7 1.8 1.6 3.1 2.7 4a14 14 0 0 0 4 2.3z" class="s3"/><path d="M909.5 2744.8v-152.1h30.3v17.2c10.9-12.9 23.5-19.4 37.8-19.4 7.3 0 12.6 1.6 16 4.8q5 4.8 6.8 15.3 7.5-9.9 16.2-15t21.8-5.1c2.5 0 4.8.3 6.8.8s3.8 1.1 5.3 1.8 2.8 1.8 4 3.3c1.1 1.5 2.1 2.8 2.9 4 .8 1.2 1.4 3 1.9 5.3s.9 4.2 1.1 5.7c.2 1.5.4 3.7.6 6.7.1 2.9.1 5.2.1 6.9v119.8h-30.3v-112.9c0-2.6 0-4.6-.1-6.1-.1-1.4-.3-3.1-.8-4.9-.4-1.9-1.1-3.2-2.2-4.1-1.1-.9-2.6-1.3-4.4-1.3q-4.7 0-9.3 1.8-4.6 1.8-7.2 3.6c-1.7 1.1-3.8 2.8-6.4 4.8v119.1h-30.3v-117.5c0-1.1-.1-2.6-.4-4.3-.3-1.8-.7-3.1-1.1-4-.5-.9-1.2-1.7-2.3-2.4-.9-.7-2.2-1.1-3.7-1.1-7.4 0-15.1 3.2-22.8 9.6v119.7zM1085.1 2539.5h30.3v30.4h-30.3zm0 53.2h30.3v152.1h-30.3zM1178.5 2746.9c-7.4 0-13.8-1.2-19.2-3.7-5.3-2.5-9.7-5.7-12.9-9.6-3.2-4-5.9-9-7.8-15.2-2-6.1-3.3-12.3-4.1-18.4-.8-6.1-1.2-13.3-1.4-21.5q-.3-9.9 0-19.8c.2-8.1.6-15.2 1.4-21.4.8-6.2 2.1-12.3 4.2-18.5 2-6.1 4.6-11.2 7.8-15.1 3.2-3.9 7.5-7.1 12.9-9.6s11.8-3.7 19.2-3.7c15.9 0 27.4 4.3 34.4 13 6.9 8.6 10.6 21.4 11.1 38.4v4h-30.3v-4.3c-.1-3.8-.3-7.1-.8-10-.4-2.9-1.1-5.7-2.1-8.6-1-2.9-2.5-5.1-4.5-6.6-2.1-1.5-4.7-2.3-7.7-2.3s-5.5.9-7.6 2.7c-2.1 1.8-3.6 4.3-4.7 7.7-1.1 3.4-1.8 6.8-2.3 10.3-.5 3.5-.8 7.6-.8 12.2q-.4 14.7 0 44.4c.2 4.4.5 8.2 1 11.5.5 3.3 1.2 6.5 2.3 9.5 1.1 3.1 2.6 5.4 4.7 7.1 2.1 1.7 4.6 2.5 7.5 2.5 2.7 0 5-.5 7-1.5 1.8-1 3.3-2.3 4.4-3.8 1-1.5 1.8-3.5 2.4-6.1.6-2.5 1-4.9 1.1-7.1.2-2.2.2-4.9.2-8.3v-3.7h30.3v3.9c-.2 8-1.2 15.1-3 21.2-1.7 6.1-4.3 11.5-7.8 16.1-3.5 4.6-8.2 8.1-14 10.5-6.1 2.6-12.9 3.8-20.9 3.8z" class="s3"/><path fill-rule="evenodd" d="M1285.6 2531.8h47.1c22.2 0 37.9 4.6 46.9 13.7 9.2 9.1 13.7 24.8 13.7 47.2v83.7c0 23.4-4.7 40.6-14 51.8-9.2 11.1-24.9 16.7-46.9 16.7h-46.8zm47.1 190.2c5 0 9.3-.5 12.7-1.4 3.6-.9 6.5-2.6 8.7-5 2.2-2.4 4-4.7 5.2-6.9q1.9-3.3 2.7-10.2c.5-4.6.8-8.4.9-11.3.1-3 .1-7.6.1-13.8v-73.1c0-3.9 0-7-.1-9.3 0-2.3-.2-5-.4-8.1-.2-3.1-.5-5.6-.9-7.4-.4-1.8-1-3.9-1.7-6.1-.7-2.2-1.6-4-2.7-5.3-1.1-1.3-2.4-2.6-3.9-4s-3.3-2.4-5.3-3.1c-2-.7-4.3-1.2-7-1.7-2.7-.4-5.7-.7-9-.7h-16.2V2722zM1457.5 2746.9c-7.4 0-13.8-1.3-19.1-3.8-5.4-2.5-9.7-5.8-13-9.9-3.2-4.1-5.8-9.3-7.8-15.7-2-6.4-3.3-12.8-4.1-19.1-.8-6.4-1.2-13.8-1.4-22.3-.2-6.7-.2-13.3 0-20 .2-7.9.8-15 1.6-21.1.8-6.1 2.3-12.1 4.3-17.9 2.1-5.8 4.7-10.5 8-14.3 3.3-3.7 7.6-6.7 13-9 5.3-2.3 11.5-3.4 18.6-3.4 6.5 0 12.2.9 17.1 2.6 5 1.7 9.1 4.3 12.4 7.7 3.3 3.4 6 7.3 8.2 11.5 2.2 4.2 3.8 9.3 4.9 15.3 1.1 6 1.9 11.9 2.3 17.6.4 5.8.7 12.4.7 20v3.6h-60.7v12.5c-.2 2.9-.2 6-.1 9.1.1 3.1.3 6.2.4 9.2.2 3 .6 5.9 1.3 8.6.7 2.7 1.6 5.1 2.6 7.2 1 2.1 2.5 3.7 4.3 4.9q2.9 1.8 6.6 1.8 4.8 0 7.8-1.8c2.1-1.2 3.6-3.1 4.6-5.5 1-2.5 1.6-4.9 2-7.4.4-2.5.6-5.5.7-9.3v-6.4h30.2v6.1c-.7 16.2-4.7 28.5-12 36.8-7.1 8.3-18.3 12.4-33.4 12.4zm-14.9-93.4h30.1v-9.2c-.1-4-.3-7.6-.7-10.6q-.5-4.5-2-9c-1-3-2.5-5.3-4.6-6.9-2.1-1.6-4.6-2.4-7.6-2.4-3.1 0-5.7.8-7.8 2.5-2.1 1.7-3.6 4.1-4.6 7.2-1 3.1-1.7 6.2-2.1 9.2-.4 3-.6 6.6-.7 10.8z" class="s3"/><path d="M1561.1 2746.9c-12.5 0-22.6-3.7-30-11.2-7.6-7.4-12.7-17.1-15.5-29l22.7-7.6q8.3 22.8 22.8 22.8c4.8 0 8.5-1.3 11.1-4 2.7-2.7 4-6.4 4-11.2 0-7-2.5-12.9-7.6-17.6l-30.3-22.8c-3.4-2.3-6.2-4.5-8.5-6.5s-4.6-4.5-7-7.4q-3.6-4.3-5.4-9.9c-1.2-3.6-1.8-7.6-1.8-11.9 0-13 4.1-22.9 12.4-29.8 8.2-6.9 19.3-10.3 33.1-10.3 6.5 0 12.4 1.1 17.7 3.1 5.3 2.1 9.8 5 13.4 8.9 3.6 3.8 6.5 8 8.8 12.7 2.3 4.6 4.2 9.8 5.5 15.5l-22.7 7.6q-1.6-4.5-3.3-7.8c-1.1-2.2-2.6-4.5-4.5-7.1-1.9-2.5-4.1-4.5-6.6-5.9q-3.7-2.1-8.3-2.1c-4.8 0-8.6 1.3-11.2 4-2.7 2.7-4 6.4-4 11.2 0 4.8 2.5 9 7.6 12.8l30.3 22.8q5.1 4 8.7 7.8c2.4 2.5 4.8 5.4 7 8.7 2.3 3.3 4 7 5.2 11 1.2 4 1.8 8.4 1.8 13 0 13-4.1 22.9-12.3 29.8-8.2 7-19.3 10.4-33.1 10.4zM1622.5 2539.5h30.3v30.4h-30.3zm0 53.2h30.3v152.1h-30.3z" class="s3"/><path fill-rule="evenodd" d="M1725.9 2790.3c-3.7 0-6.8 0-9.2-.1-2.4 0-5.6-.1-9.7-.3-4.1-.2-7.6-.5-10.3-.9-2.8-.4-5.8-1-9.4-1.7-3.6-.7-6.5-1.6-8.9-2.7-2.3-1.1-4.6-2.4-6.7-3.9-2.1-1.5-3.7-3.3-4.8-5.5-1.1-2.2-1.6-4.6-1.6-7.3 0-7.9 2.1-14.7 6.4-20.3 4.2-5.6 9.7-10.1 16.5-13.4-4.1-1.1-7.7-2.8-10.7-5.1-3-2.3-4.5-5-4.5-8.3 0-1.3.2-2.8.5-4.3s.7-2.9 1.1-4.1c.4-1.2 1-2.6 1.9-4.2.9-1.6 1.6-2.8 2.1-3.7.5-.9 1.4-2.2 2.6-3.8q1.8-2.4 2.4-3.3c.4-.6 1.3-1.7 2.6-3.2q1.9-2.3 2.1-2.7c-10.1-12-15.2-27.3-15.2-45.6 0-10.5 1.7-19.9 5-28.2 3.3-8.2 8.5-14.8 15.4-19.8 7-5 15.4-7.4 25.1-7.4q8.3 0 14.6 2.4c4.2 1.6 7.6 3.6 10.3 6 2.7 2.4 5.2 5.6 7.8 9.6 5.9-11.2 14.5-17.1 25.6-17.8H1779.3v24.8h-1.9c-3.4 0-6 0-7.7.1-1.7.1-3.7.4-5.8 1-2.1.6-3.8 1.5-5.1 2.8 1.4 3.1 2.7 7.2 3.7 12.3 1.1 5.1 1.6 9.8 1.6 14.2q0 15.9-4.8 28.2c-3.2 8.2-8.2 14.7-15.2 19.6-7 4.9-15.5 7.4-25.4 7.4l-15.3-1.8q-.3.6-1.2 2.1-.9 1.5-1.5 2.4c-.4.6-.7 1.4-1 2.4-.3 1-.5 1.9-.5 2.8 0 2.1 1 3.8 3 5.2 2 1.4 4.7 2.5 8.2 3.1 3.5.7 6.8 1.2 10 1.5 3.2.3 6.7.6 10.7.8 4 .2 6.7.4 8.2.7 4.5.6 8.5 1.4 12.1 2.2q5.2 1.2 10.7 3.6c3.7 1.6 6.7 3.5 9.1 5.7 2.4 2.2 4.3 5.1 5.9 8.6 1.5 3.5 2.3 7.5 2.3 12 0 5.5-1 10.5-2.9 14.9q-2.9 6.6-7.8 10.8c-3.2 2.9-7.2 5.2-11.8 7.1-4.5 1.9-9.3 3.2-14.4 4-5.4.7-10.8 1.1-16.6 1.1zm0-22.5c2.1 0 4.1 0 5.8-.1 1.7-.1 3.7-.2 5.9-.5 2.2-.2 4.1-.6 5.8-1.1 1.6-.5 3.2-1.2 4.6-2 1.5-.8 2.6-1.8 3.4-3.1q1.2-1.9 1.2-4.5c0-8.5-8.1-13.7-24.4-15.6l-25-3c-3.1 2.2-5.7 5.4-7.9 9.6q-3.2 6.3-3.2 13.2c0 1.3.4 2.4 1.2 3.3q1.4 1.4 3.9 2.1c1.7.5 3.4.9 5.2 1.2 1.8.3 3.9.5 6.4.6 2.5.1 4.6.1 6.3.1 1.7 0 3.8 0 6.1-.1 2.3 0 3.8-.1 4.7-.1zm-7.5-89.6c12.6 0 18.9-10.8 18.9-32.3 0-4.4-.3-8.4-.8-12.1-.6-3.7-1.5-7.3-2.9-10.8-1.3-3.5-3.3-6.3-5.9-8.3-2.6-2-5.6-3-9.3-3-3.7 0-6.9 1-9.5 3-2.6 2-4.6 4.8-5.9 8.3-1.3 3.5-2.2 7.1-2.8 10.8-.6 3.7-.8 7.7-.8 12.1 0 21.6 6.3 32.3 19 32.3z" class="s3"/><path d="M1783.7 2744.8v-152.1h30.3v16.4c4.5-4.1 8.1-7.3 11-9.4 2.9-2.2 6.8-4.2 11.8-6.2 5-1.9 10.4-2.9 16-2.9 6.5 0 11.8 2.4 15.8 7.1 4 4.8 6.1 10.6 6.1 17.5v129.7h-30.3v-114.1c0-5.3-.8-9.2-2.3-11.6-1.5-2.4-4.6-3.6-9.2-3.6-2.6 0-5.2.5-7.8 1.6-2.6 1.1-4.5 2.1-5.8 3-1.2.9-3 2.4-5.4 4.3v120.4h-30.2z" class="s3"/><path fill-rule="evenodd" d="M1048.7 2890.2v-86.6h18.5c4 0 7.6.4 10.7 1.3 3.2.8 5.9 2.1 8.3 3.8 2.4 1.7 4.2 4 5.5 6.8 1.2 2.8 1.8 6.1 1.8 9.8 0 5.4-1 9.5-3.3 12.4-2.3 2.8-5.8 4.9-10.6 6.2 5.2 1.7 9 4.2 11.6 7.5q3.8 5 3.8 14.1c0 7.6-2.2 13.7-6.5 18.1-4.4 4.4-10.5 6.6-18.1 6.6zm18.5-49.5c10.2 0 15.4-5.2 15.4-15.5q0-2.5-.6-4.5-.6-1.9-1.5-3.3c-.6-.9-1.5-1.6-2.6-2.2-1.2-.6-2.2-1.1-3.2-1.4-1-.3-2.3-.6-4-.7q-2.7-.1-4.5-.3h-5.1v27.9zm-6.2 40.2h6.2c5.3 0 9.3-1.2 11.6-3.7 2.5-2.5 3.7-6.4 3.7-11.8s-1.2-9.3-3.7-11.8c-2.4-2.5-6.3-3.7-11.6-3.7h-6.2z" class="s4"/><path d="M1102.3 2890.2v-61.9h12.4v8.3c1.3-2.4 3.1-4.6 5.5-6.4 2.4-1.8 5-2.7 7.9-2.7.1 0 .8.1 2 .2v13.7c-2.3-.9-4.6-1.4-6.8-1.4-2.6 0-4.7.8-6.2 2.3-1.6 1.5-2.4 3.6-2.4 6.1v41.8z" class="s4"/><path fill-rule="evenodd" d="M1145.5 2891.1c-3.4 0-6.4-1.5-8.8-4.5-2.4-3-3.6-6.3-3.6-10.1 0-3 .5-5.7 1.5-8.2 1-2.4 2.1-4.4 3.2-5.9q1.7-2.2 5.7-4.5c2.6-1.6 4.6-2.6 6-3.2 1.4-.6 3.7-1.5 7-2.9.6-.2 1-.4 1.3-.5v-4.4c0-3.1-.4-5.6-1.3-7.3-.8-1.7-2.4-2.6-4.8-2.6-2.1 0-3.6.7-4.6 2.2-.9 1.5-1.4 3.5-1.6 6.1v1.6h-12.4c.1-5.9 1.7-10.7 5-14.2s7.8-5.3 13.6-5.3c5.7 0 10.2 1.8 13.5 5.3 3.3 3.6 5 8.3 5 14.1v27.8c0 6.4.5 11.6 1.6 15.5h-12.3l-1.6-9.3c-.6 1.3-1.2 2.3-1.6 3-.4.7-.9 1.6-1.7 2.6-.8 1-1.5 1.9-2.3 2.4-.8.6-1.7 1.1-2.9 1.5-1.2.6-2.5.8-3.9.8zm6.2-10.2c.9 0 1.7-.3 2.5-.8s1.4-1 1.8-1.5c.4-.5.9-1.1 1.5-1.9.1-.2.2-.3.2-.3v-17.1c-.5.4-1.4.9-2.5 1.6-1.2.7-2.1 1.3-2.9 1.8-.7.5-1.6 1.1-2.6 1.9-1 .8-1.8 1.6-2.3 2.4-.5.8-1 1.7-1.5 2.8-.4 1.1-.6 2.2-.6 3.4.2 5.2 2.3 7.7 6.4 7.7zM1194.2 2891.1c-2.7 0-5.1-.8-7.1-2.3-2-1.5-3.6-3.6-4.7-6.3-1.1-2.6-1.9-5.4-2.5-8.2-.5-2.9-.9-5.9-1-9.2q-.2-2.2 0-11.1c.1-2.1.2-4.1.3-5.8.1-1.7.3-3.5.7-5.4.3-1.9.7-3.5 1.2-5 .5-1.4 1.1-2.8 1.9-4.2q1.2-1.9 2.7-3.3c1-.9 2.2-1.6 3.6-2.1 1.5-.5 3.1-.8 4.8-.8q2.1 0 3.9.6c1.2.4 2.4 1 3.5 1.7 1.1.8 2 1.5 2.6 2.1.7.6 1.5 1.5 2.6 2.6v-30.8h12.3v86.6h-12.3v-5.6c-1.9 1.9-3.8 3.5-5.7 4.7-2.1 1.2-4.3 1.8-6.8 1.8zm3.1-10.2c3 0 6.1-.6 9.3-1.9v-38.9c-2.8-1.6-5.9-2.5-9.3-2.5-1.2 0-2.3.3-3.1.9-.8.6-1.5 1.5-1.9 2.6-.4 1.1-.7 2.3-.9 3.5-.2 1.2-.3 2.6-.3 4.3-.1 7.2-.1 12.9 0 17.2 0 2.1.1 3.9.3 5.5.2 1.6.5 3.2.9 4.7s1.1 2.7 1.9 3.5c.9.7 1.9 1.1 3.1 1.1z" class="s4"/><path d="M1249 2890.2v-86.6h33.8v9.3h-21.6v27.8h15.5v9.3h-15.5v40.2zM1285.1 2890.2v-61.9h12.4v8.3c1.3-2.4 3.1-4.6 5.5-6.4 2.4-1.8 5.1-2.7 8-2.7.1 0 .8.1 2 .2v13.7c-2.3-.9-4.6-1.4-6.9-1.4-2.6 0-4.7.8-6.2 2.3-1.6 1.5-2.4 3.6-2.4 6.1v41.8z" class="s4"/><path fill-rule="evenodd" d="M1348.6 2885.3c-2.9 3.9-7.5 5.8-14.2 5.8-6.6 0-11.4-1.9-14.3-5.8-2.9-3.9-4.3-9.4-4.3-16.7V2850c0-7.3 1.4-12.9 4.3-16.7 2.9-3.8 7.6-5.8 14.3-5.8 6.6 0 11.3 1.9 14.2 5.8 2.9 3.9 4.3 9.4 4.3 16.7v18.6c0 7.2-1.5 12.8-4.3 16.7zm-16.5-4.8c.7.3 1.4.4 2.3.4.9 0 1.6-.1 2.3-.4.7-.3 1.2-.6 1.6-.9a5 5 0 0 0 1.1-1.6c.3-.7.5-1.4.7-1.9q.3-.8.3-2.4c.1-1 .1-1.8.1-2.4v-24c0-.6-.1-1.4-.1-2.4q-.2-1.5-.3-2.4c-.2-.5-.4-1.2-.7-1.9-.3-.7-.7-1.3-1.1-1.6-.4-.4-1-.7-1.6-.9-.7-.3-1.4-.4-2.3-.4-.9 0-1.6.1-2.3.4-.7.3-1.2.6-1.6.9a5 5 0 0 0-1.1 1.6c-.3.7-.5 1.4-.7 1.9q-.3.8-.3 2.4c-.1 1-.1 1.8-.1 2.4v24c0 .6.1 1.4.1 2.4q.2 1.5.3 2.4c.2.5.4 1.2.7 1.9.3.7.7 1.3 1.1 1.6.4.4.9.7 1.6.9z" class="s4"/><path d="M1378.2 2891.1q-7.6 0-12.2-4.5c-3.1-3-5.2-7-6.3-11.8l9.3-3.1q3.3 9.3 9.2 9.3c2 0 3.5-.5 4.6-1.6 1.1-1.1 1.6-2.6 1.6-4.6 0-2.9-1-5.3-3.1-7.2l-12.3-9.3c-1.4-.9-2.5-1.8-3.5-2.6-.9-.8-1.9-1.8-2.9-3s-1.7-2.5-2.2-4c-.5-1.5-.8-3.1-.8-4.8 0-5.3 1.7-9.3 5.1-12.1q5.1-4.2 13.4-4.2c2.7 0 5.1.4 7.3 1.3q3.3 1.4 5.4 3.6c1.5 1.5 2.7 3.3 3.6 5.1.9 1.9 1.7 4 2.2 6.3l-9.3 3.1c-.5-1.2-.9-2.3-1.4-3.2-.5-.9-1.1-1.8-1.8-2.9q-1.2-1.5-2.7-2.4c-1-.6-2.2-.8-3.4-.8-1.9 0-3.4.5-4.5 1.6s-1.6 2.6-1.6 4.6c0 1.9 1 3.7 3.1 5.2l12.3 9.3c1.4 1.1 2.6 2.2 3.6 3.2s1.9 2.2 2.9 3.5q1.3 2 2.1 4.5c.5 1.6.7 3.4.7 5.3 0 5.3-1.7 9.3-5.1 12.1-3.2 2.7-7.7 4.1-13.3 4.1zM1420.3 2891.1c-4.9 0-8.4-1.2-10.6-3.7-2.1-2.5-3.2-6.2-3.3-11.3v-38.5h-6.2v-9.3h6.2v-21.7h12.3v21.7h9.3v9.3h-9.3v36.1c0 2.5.3 4.3 1 5.5.7 1.2 2 1.7 4.1 1.7.9 0 2.3-.2 4.2-.5v10.1c-3.1.4-5.7.6-7.7.6z" class="s4"/></g></svg>