<svg xmlns="http://www.w3.org/2000/svg" xml:space="preserve" fill="white" style="enable-background:new 0 0 119.25 122.88" viewBox="0 0 119.3 122.9">
  <path d="M86 104a4 4 0 0 0-3 0l-1 1a4 4 0 0 0-1 1h-6v-5a14 14 0 0 1-4 1v6a2 2 0 0 0 2 2h8a3 3 0 0 0 1 1 4 4 0 0 0 4 0 4 4 0 0 0 2-2 4 4 0 0 0 0-3 4 4 0 0 0-2-2zM57 67h-7l-1 3h-7l8-21h7l8 21h-7l-1-3zm-1-5-2-8-3 8h5zm11-13h7v21h-7V49zm-5-22a12 12 0 0 0-3 4 1 1 0 0 1-1 0 12 12 0 0 0-3-4 9 9 0 0 0-3-1 10 10 0 0 0-4 0 11 11 0 0 0-7 4l-2 3v1a1 1 0 0 1-1 0l-4 2a13 13 0 0 0-3 3l-3 4a16 16 0 0 0 0 5l-1 1h1a1 1 0 0 1-1 1 21 21 0 0 0-4 4 13 13 0 0 0-2 3 12 12 0 0 0 0 7l2 4a16 16 0 0 0 3 3 1 1 0 0 1 0 1 14 14 0 0 0 0 4 14 14 0 0 0 3 7 15 15 0 0 0 6 5 12 12 0 0 0 3 0l1 1a10 10 0 0 0 1 3 11 11 0 0 0 7 5 10 10 0 0 0 8-2 12 12 0 0 0 4-3 1 1 0 0 1 1 0 11 11 0 0 0 2 3 9 9 0 0 0 4 2h4l5-2a12 12 0 0 0 3-3 10 10 0 0 0 2-3 1 1 0 0 1 0-1l4-2a14 14 0 0 0 4-3 15 15 0 0 0 2-5l1-5a20 20 0 0 0 4-4 12 12 0 0 0 2-11l-1-3a15 15 0 0 0-4-4 13 13 0 0 0-1-8 15 15 0 0 0-5-7 13 13 0 0 0-3-1l-2-1h-2a10 10 0 0 0-1-3l-2-2-3-2a11 11 0 0 0-4-1 10 10 0 0 0-3 0l-4 1zm17 12a1 1 0 0 1 0-1h1a10 10 0 0 1 4 2l2 2 2 2a10 10 0 0 1 1 5 9 9 0 0 1-1 2 2 2 0 0 0 1 2 13 13 0 0 1 3 4l1 2a8 8 0 0 1 0 5 9 9 0 0 1-1 3l-2 2-3 1a2 2 0 0 0 0 2l-1 5a11 11 0 0 1-1 4l-2 2a8 8 0 0 1-3 1 1 1 0 0 1-1 0c-1-4-3-5-6-7a2 2 0 0 0-1 0 2 2 0 0 0-1 1l-1 1 1 1c3 2 5 3 5 6a6 6 0 0 1-1 3 9 9 0 0 1-2 3 9 9 0 0 1-3 1 6 6 0 0 1-7-3 16 16 0 0 1-2-4l-1-2a4 4 0 0 0-2 0l-1 2a13 13 0 0 1-2 5 6 6 0 0 1-4 2h-3a8 8 0 0 1-3-1 8 8 0 0 1-2-2 6 6 0 0 1-1-3c0-4 3-5 5-7l1-1a2 2 0 0 0 0-1 2 2 0 0 0-1-1 2 2 0 0 0-1 0c-4 2-6 3-7 7a1 1 0 0 1-1 0 6 6 0 0 1-2 0l-2-1a11 11 0 0 1-4-5 10 10 0 0 1 0-2 9 9 0 0 1 0-5v-1l-1-1a12 12 0 0 1-3-3 10 10 0 0 1-1-3 8 8 0 0 1 0-5l1-2 2-2a17 17 0 0 1 3-2v-1l1-1a13 13 0 0 1-1-2l1-4a11 11 0 0 1 2-3 9 9 0 0 1 2-2l2-1 1 1a10 10 0 0 0 3 4 2 2 0 0 0 3 0v-1a2 2 0 0 0-1-1 6 6 0 0 1-1-3 6 6 0 0 1 0-4 7 7 0 0 1 1-2 8 8 0 0 1 2-2 8 8 0 0 1 2-1 6 6 0 0 1 3 0l3 2 2 4 2 1h2l1-1 2-3a8 8 0 0 1 4-3 6 6 0 0 1 2 0l2 1a8 8 0 0 1 2 1 7 7 0 0 1 1 2l1 4-1 3a2 2 0 0 0 0 2 2 2 0 0 0 3 0 8 8 0 0 0 2-3zm21 49a4 4 0 0 1 0-4l1-1a4 4 0 0 1 1-1v-6h-7v-1a1 1 0 0 1 0-1l2-1h7a2 2 0 0 1 2 1v8a3 3 0 0 1 1 1 4 4 0 0 1 1 4v1a4 4 0 0 1-2 2 4 4 0 0 1-3 0 4 4 0 0 1-3-2zm12-21h-11a13 13 0 0 0 1-3h10v-1a4 4 0 0 1 3-1h2a4 4 0 0 1 2 2 4 4 0 0 1 0 3 4 4 0 0 1-5 2 4 4 0 0 1-2-1v-1zm3-9h-13a16 16 0 0 0-2-4h13V42a5 5 0 0 1-1 0 4 4 0 0 1 0-4 4 4 0 0 1 2-3 4 4 0 0 1 3 0 4 4 0 0 1 2 6 4 4 0 0 1-2 2v13l-1 1-1 1zm-14-9h-4a15 15 0 0 0 0-4h2v-5a4 4 0 0 1-1 0 4 4 0 0 1 0-5v-1a4 4 0 0 1 5-1l1 1 1 1a4 4 0 0 1-1 4v1a4 4 0 0 1-1 0v7a2 2 0 0 1-2 2zM31 19a4 4 0 0 0 3 0l1-1a4 4 0 0 0 1-1h7v5a13 13 0 0 1 3-1v-6a2 2 0 0 0-2-2h-8a3 3 0 0 0-1-1 4 4 0 0 0-4-1 4 4 0 0 0-2 3 4 4 0 0 0 0 3 4 4 0 0 0 2 2zM51 8v13l4 2V7a4 4 0 0 0 2-3V2a4 4 0 0 0-2-2 4 4 0 0 0-3 0 4 4 0 0 0-3 5v1a4 4 0 0 0 2 1v1zm10-4v20l2-1a11 11 0 0 1 2-1V6h11a5 5 0 0 0 1 1 4 4 0 0 0 4 1 4 4 0 0 0 3-4 4 4 0 0 0-4-4h-2a4 4 0 0 0-2 2H63a2 2 0 0 0-2 2zm9 14v3a12 12 0 0 1 3 1v-2h5a4 4 0 0 0 1 1 4 4 0 0 0 4 1l2-1a4 4 0 0 0 1-4l-1-2a4 4 0 0 0-2-1 4 4 0 0 0-4 1 4 4 0 0 0-1 1h-7l-1 1v1zM19 35a4 4 0 0 1 0 3l-1 1v1a4 4 0 0 1-1 0v7h6v1l-2 2h-6a2 2 0 0 1-2-2v-8a3 3 0 0 1-1 0 4 4 0 0 1-1-5 4 4 0 0 1 3-2 4 4 0 0 1 3 0l1 1 1 1zM8 55h9a13 13 0 0 0-1 4H7a4 4 0 0 1-3 2H2a4 4 0 0 1-2-2 4 4 0 0 1 0-3 4 4 0 0 1 5-2 4 4 0 0 1 2 1h1zM4 65h12l2 4H6v11a5 5 0 0 1 1 1 4 4 0 0 1 1 4 4 4 0 0 1-3 2 4 4 0 0 1-3 0 4 4 0 0 1-2-3v-2a4 4 0 0 1 2-2V67a2 2 0 0 1 2-2zm14 9h3a15 15 0 0 0 0 3h-1v5a4 4 0 0 1 1 1 4 4 0 0 1 1 5l-1 1a4 4 0 0 1-4 1l-2-1a4 4 0 0 1-1-1 4 4 0 0 1 1-5 4 4 0 0 1 1-1v-7l1-1a2 2 0 0 1 1 0zm48 41v-14a10 10 0 0 1-3-2v16l-1 1a4 4 0 0 0-2 3l1 1a4 4 0 0 0 2 3 4 4 0 0 0 3 0 4 4 0 0 0 2-6 4 4 0 0 0-2-1v-1zm-10 4V99a12 12 0 0 1-3 2v16H41a5 5 0 0 0 0-1 4 4 0 0 0-5-1 4 4 0 0 0-2 2 4 4 0 0 0 0 3 4 4 0 0 0 5 3 4 4 0 0 0 2-2h14l1-1v-1zm-8-14v-3a12 12 0 0 1-4-1v2h-5a4 4 0 0 0-1-1 4 4 0 0 0-4-1l-1 1a4 4 0 0 0-1 4l1 2h1a4 4 0 0 0 4 0 4 4 0 0 0 1-1h7a2 2 0 0 0 2-2z"/>
</svg>
