
<svg width="282" height="282" viewBox="0 0 282 282" fill="none" xmlns="http://www.w3.org/2000/svg">
<path d="M53.2169 44.9949C53.2169 49.6282 49.4474 53.3843 44.7976 53.3843C40.1477 53.3843 36.3782 49.6282 36.3782 44.9949C36.3782 40.3615 40.1477 36.6055 44.7976 36.6055C49.4474 36.6055 53.2169 40.3615 53.2169 44.9949Z" fill="#826BDE"/>
<path d="M20.8741 80.6975L50.751 50.9269C47.463 54.2032 42.1321 54.2032 38.8442 50.9269C35.5562 47.6507 35.5562 42.3388 38.8442 39.0625L3.77293 74.0089C3.49274 74.2251 3.22309 74.4613 2.96594 74.7175C1.3101 76.3675 0.488152 78.5337 0.50009 80.6962C0.48746 82.8596 1.3094 85.0269 2.96592 86.6775C3.22311 86.9338 3.49281 87.17 3.77304 87.3862L38.8442 122.333C35.5562 119.056 35.5562 113.744 38.8442 110.468C42.1322 107.192 47.463 107.192 50.751 110.468L20.8741 80.6975Z" fill="#5230E0"/>
<path d="M53.2169 116.4C53.2169 121.034 49.4474 124.79 44.7976 124.79C40.1477 124.79 36.3782 121.034 36.3782 116.4C36.3782 111.767 40.1477 108.011 44.7976 108.011C49.4474 108.011 53.2169 111.767 53.2169 116.4Z" fill="#826BDE"/>
<path d="M37.4737 79.7949C37.4737 75.1616 41.2432 71.4055 45.8931 71.4055C50.543 71.4055 54.3125 75.1616 54.3125 79.7949C54.3125 84.4283 50.543 88.1843 45.8931 88.1843C41.2432 88.1843 37.4737 84.4283 37.4737 79.7949Z" fill="#379981"/>
<path d="M69.8166 44.0923L39.9397 73.8629C43.2277 70.5866 48.5585 70.5866 51.8465 73.8629C55.1345 77.1391 55.1345 82.451 51.8465 85.7273L86.9177 50.7809C87.1979 50.5647 87.4676 50.3285 87.7247 50.0723C89.3806 48.4223 90.2025 46.2561 90.1906 44.0936C90.2032 41.9302 89.3813 39.7629 87.7248 38.1123C87.4676 37.856 87.1979 37.6198 86.9176 37.4036L51.8465 2.45728C55.1345 5.73355 55.1345 11.0454 51.8465 14.3217C48.5585 17.598 43.2277 17.598 39.9397 14.3217L69.8166 44.0923Z" fill="#75E1C7"/>
<path d="M37.4737 8.38939C37.4737 3.75605 41.2432 -1.8831e-05 45.8931 -1.88325e-05C50.543 -1.88339e-05 54.3125 3.75605 54.3125 8.38939C54.3125 13.0227 50.543 16.7788 45.8931 16.7788C41.2432 16.7788 37.4737 13.0227 37.4737 8.38939Z" fill="#379981"/>
<path d="M124.838 33.5464C122.393 33.5464 120.265 33.0937 118.456 32.1883C116.647 31.2494 115.24 29.9584 114.235 28.3152C113.263 26.6386 112.778 24.6936 112.778 22.4804V15.9415C112.778 13.7283 113.263 11.8001 114.235 10.157C115.24 8.48031 116.647 7.18928 118.456 6.28389C120.265 5.34495 122.393 4.87549 124.838 4.87549C127.317 4.87549 129.445 5.34495 131.22 6.28389C133.029 7.18928 134.42 8.48031 135.391 10.157C136.396 11.8001 136.899 13.7283 136.899 15.9415V22.4804C136.899 24.6936 136.396 26.6386 135.391 28.3152C134.42 29.9584 133.029 31.2494 131.22 32.1883C129.445 33.0937 127.317 33.5464 124.838 33.5464ZM124.838 27.0074C126.312 27.0074 127.435 26.6218 128.205 25.8505C128.976 25.0457 129.361 23.9224 129.361 22.4804V15.9415C129.361 14.466 128.976 13.3426 128.205 12.5714C127.435 11.8001 126.312 11.4145 124.838 11.4145C123.398 11.4145 122.275 11.8001 121.471 12.5714C120.701 13.3426 120.315 14.466 120.315 15.9415V22.4804C120.315 23.9224 120.701 25.0457 121.471 25.8505C122.275 26.6218 123.398 27.0074 124.838 27.0074Z" fill="white"/>
<path d="M141.201 42.0974V5.37849H148.488V10.66H150.246L148.488 12.4205C148.488 10.0396 149.141 8.19528 150.448 6.88748C151.754 5.54615 153.546 4.87549 155.825 4.87549C158.605 4.87549 160.833 5.86472 162.508 7.84318C164.183 9.78811 165.021 12.4037 165.021 15.69V22.7319C165.021 24.9116 164.636 26.823 163.865 28.4661C163.128 30.0757 162.073 31.3332 160.699 32.2386C159.325 33.1105 157.701 33.5464 155.825 33.5464C153.546 33.5464 151.754 32.8925 150.448 31.5847C149.141 30.2434 148.488 28.3823 148.488 26.0014L150.246 27.7619H148.488L148.739 34.5524V42.0974H141.201ZM153.111 27.0074C154.518 27.0074 155.59 26.6218 156.327 25.8505C157.098 25.0457 157.483 23.9224 157.483 22.4804V15.9415C157.483 14.466 157.098 13.3426 156.327 12.5714C155.59 11.8001 154.518 11.4145 153.111 11.4145C151.737 11.4145 150.665 11.8169 149.895 12.6217C149.124 13.3929 148.739 14.4995 148.739 15.9415V22.4804C148.739 23.9224 149.124 25.0457 149.895 25.8505C150.665 26.6218 151.737 27.0074 153.111 27.0074Z" fill="white"/>
<path d="M181.132 33.5464C178.687 33.5464 176.543 33.0937 174.7 32.1883C172.891 31.2494 171.484 29.9584 170.479 28.3152C169.507 26.6386 169.021 24.6936 169.021 22.4804V15.9415C169.021 13.7283 169.507 11.8001 170.479 10.157C171.484 8.48031 172.891 7.18928 174.7 6.28389C176.543 5.34495 178.687 4.87549 181.132 4.87549C183.578 4.87549 185.689 5.34495 187.464 6.28389C189.273 7.18928 190.664 8.48031 191.635 10.157C192.64 11.8001 193.143 13.7283 193.143 15.9415V20.9715H176.208V22.4804C176.208 24.2242 176.626 25.5487 177.464 26.4541C178.301 27.326 179.558 27.7619 181.233 27.7619C182.405 27.7619 183.343 27.5607 184.047 27.1583C184.784 26.7559 185.27 26.2026 185.504 25.4984H192.891C192.288 27.9128 190.915 29.8578 188.771 31.3332C186.66 32.8087 184.114 33.5464 181.132 33.5464ZM185.957 17.0984V15.8409C185.957 14.1307 185.555 12.8229 184.751 11.9175C183.98 11.0121 182.774 10.5594 181.132 10.5594C179.491 10.5594 178.251 11.0288 177.414 11.9678C176.61 12.9067 176.208 14.2313 176.208 15.9415V16.696L186.459 16.5954L185.957 17.0984Z" fill="white"/>
<path d="M197.947 33.0434V5.37849H205.234V10.66H207.445L205.234 12.4205C205.234 10.0731 205.904 8.22881 207.244 6.88748C208.584 5.54615 210.393 4.87549 212.671 4.87549C215.352 4.87549 217.496 5.81442 219.104 7.69228C220.745 9.57014 221.566 12.0684 221.566 15.187V33.0434H214.028V15.9415C214.028 14.4995 213.643 13.3929 212.872 12.6217C212.135 11.8169 211.08 11.4145 209.707 11.4145C208.366 11.4145 207.328 11.8169 206.591 12.6217C205.854 13.3929 205.485 14.4995 205.485 15.9415V33.0434H197.947Z" fill="white"/>
<path d="M123.682 78.9223C121.404 78.9223 119.411 78.5702 117.702 77.866C115.994 77.1282 114.654 76.1222 113.682 74.848C112.744 73.5737 112.275 72.0815 112.275 70.3713H119.813C119.813 71.1761 120.165 71.83 120.868 72.333C121.605 72.8024 122.543 73.0372 123.682 73.0372H125.894C127.267 73.0372 128.306 72.7857 129.009 72.2827C129.746 71.7797 130.115 71.0755 130.115 70.1701C130.115 69.3317 129.796 68.6946 129.16 68.2587C128.523 67.7892 127.535 67.4707 126.195 67.303L122.979 66.9006C119.528 66.4647 117.016 65.6263 115.441 64.3856C113.866 63.1449 113.079 61.2502 113.079 58.7017C113.079 56.0191 114 53.94 115.843 52.4645C117.686 50.9891 120.382 50.2513 123.934 50.2513H125.843C129.227 50.2513 131.924 50.9891 133.934 52.4645C135.944 53.94 136.949 55.9184 136.949 58.3999H129.411C129.411 57.7292 129.076 57.1927 128.406 56.7903C127.77 56.3544 126.915 56.1364 125.843 56.1364H123.934C122.694 56.1364 121.79 56.3544 121.22 56.7903C120.65 57.1927 120.366 57.8131 120.366 58.6514C120.366 59.4227 120.617 60.0095 121.12 60.4119C121.656 60.8143 122.493 61.0993 123.632 61.267L127.1 61.7197C130.584 62.1556 133.163 63.0275 134.839 64.3353C136.547 65.6431 137.401 67.588 137.401 70.1701C137.401 72.9869 136.43 75.1498 134.487 76.6588C132.544 78.1678 129.679 78.9223 125.894 78.9223H123.682Z" fill="white"/>
<path d="M153.463 78.9223C151.017 78.9223 148.89 78.4696 147.081 77.5642C145.271 76.6252 143.864 75.3342 142.859 73.6911C141.888 72.0144 141.402 70.0695 141.402 67.8563V61.3173C141.402 59.1041 141.888 57.1759 142.859 55.5328C143.864 53.8562 145.271 52.5651 147.081 51.6597C148.89 50.7208 151.017 50.2513 153.463 50.2513C155.942 50.2513 158.069 50.7208 159.845 51.6597C161.654 52.5651 163.044 53.8562 164.016 55.5328C165.021 57.1759 165.523 59.1041 165.523 61.3173V67.8563C165.523 70.0695 165.021 72.0144 164.016 73.6911C163.044 75.3342 161.654 76.6252 159.845 77.5642C158.069 78.4696 155.942 78.9223 153.463 78.9223ZM153.463 72.3833C154.937 72.3833 156.059 71.9976 156.83 71.2264C157.6 70.4216 157.985 69.2982 157.985 67.8563V61.3173C157.985 59.8418 157.6 58.7185 156.83 57.9472C156.059 57.1759 154.937 56.7903 153.463 56.7903C152.022 56.7903 150.9 57.1759 150.096 57.9472C149.325 58.7185 148.94 59.8418 148.94 61.3173V67.8563C148.94 69.2982 149.325 70.4216 150.096 71.2264C150.9 71.9976 152.022 72.3833 153.463 72.3833Z" fill="white"/>
<path d="M182.087 78.9223C178.368 78.9223 175.454 77.9163 173.343 75.9043C171.266 73.8923 170.227 71.1425 170.227 67.6551V50.7543H177.765V67.6048C177.765 69.1473 178.134 70.3377 178.871 71.1761C179.608 71.9809 180.68 72.3833 182.087 72.3833C183.461 72.3833 184.516 71.9809 185.253 71.1761C186.024 70.3377 186.409 69.1473 186.409 67.6048V50.7543H193.947V67.6551C193.947 71.1761 192.891 73.9426 190.781 75.9546C188.67 77.933 185.772 78.9223 182.087 78.9223Z" fill="white"/>
<path d="M198.751 78.4193V50.7543H205.787V56.0358H207.696L205.536 59.255C205.536 56.2705 206.222 54.0238 207.596 52.5148C208.969 51.0058 210.98 50.2513 213.626 50.2513C216.675 50.2513 219.037 51.1735 220.712 53.0178C222.42 54.8622 223.275 57.461 223.275 60.8143V63.0778H215.234V61.3173C215.234 59.8083 214.816 58.6346 213.978 57.7963C213.174 56.958 212.085 56.5388 210.712 56.5388C209.271 56.5388 208.165 56.958 207.395 57.7963C206.658 58.6346 206.289 59.8083 206.289 61.3173V78.4193H198.751Z" fill="white"/>
<path d="M238.984 78.9223C236.539 78.9223 234.395 78.4696 232.552 77.5642C230.709 76.6252 229.285 75.3342 228.28 73.6911C227.275 72.0144 226.773 70.0695 226.773 67.8563V61.3173C226.773 59.0706 227.275 57.1256 228.28 55.4825C229.285 53.8394 230.709 52.5651 232.552 51.6597C234.395 50.7208 236.539 50.2513 238.984 50.2513C242.636 50.2513 245.551 51.1735 247.728 53.0178C249.906 54.8622 251.062 57.3771 251.196 60.5628H243.658C243.557 59.3891 243.088 58.467 242.251 57.7963C241.447 57.1256 240.358 56.7903 238.984 56.7903C237.477 56.7903 236.321 57.1759 235.517 57.9472C234.713 58.7185 234.311 59.8418 234.311 61.3173V67.8563C234.311 69.2982 234.713 70.4216 235.517 71.2264C236.321 71.9976 237.477 72.3833 238.984 72.3833C240.358 72.3833 241.447 72.0647 242.251 71.4276C243.088 70.7569 243.557 69.818 243.658 68.6108H251.196C251.062 71.7964 249.906 74.3114 247.728 76.1558C245.551 78.0001 242.636 78.9223 238.984 78.9223Z" fill="white"/>
<path d="M268.011 78.9223C265.565 78.9223 263.421 78.4696 261.578 77.5642C259.769 76.6252 258.362 75.3342 257.357 73.6911C256.386 72.0144 255.9 70.0695 255.9 67.8563V61.3173C255.9 59.1041 256.386 57.1759 257.357 55.5328C258.362 53.8562 259.769 52.5651 261.578 51.6597C263.421 50.7208 265.565 50.2513 268.011 50.2513C270.456 50.2513 272.567 50.7208 274.343 51.6597C276.152 52.5651 277.542 53.8562 278.514 55.5328C279.519 57.1759 280.021 59.1041 280.021 61.3173V66.3473H263.086V67.8563C263.086 69.6 263.505 70.9246 264.342 71.83C265.18 72.7018 266.436 73.1378 268.111 73.1378C269.284 73.1378 270.222 72.9366 270.925 72.5342C271.662 72.1318 272.148 71.5785 272.383 70.8743H279.77C279.167 73.2887 277.793 75.2336 275.649 76.7091C273.539 78.1845 270.992 78.9223 268.011 78.9223ZM272.835 62.4742V61.2167C272.835 59.5065 272.433 58.1987 271.629 57.2933C270.858 56.3879 269.652 55.9352 268.011 55.9352C266.369 55.9352 265.13 56.4047 264.292 57.3436C263.488 58.2825 263.086 59.6071 263.086 61.3173V62.0718L273.338 61.9712L272.835 62.4742Z" fill="white"/>
<path d="M113.783 132.849V125.807H121.823C123.197 125.807 124.252 125.421 124.989 124.65C125.726 123.912 126.095 122.873 126.095 121.532V103.172H115.29V96.1302H133.632V121.783C133.632 125.204 132.627 127.903 130.617 129.881C128.607 131.86 125.86 132.849 122.376 132.849H113.783ZM129.612 91.7541C128.239 91.7541 127.133 91.402 126.296 90.6978C125.492 89.9936 125.089 89.0379 125.089 87.8307C125.089 86.6235 125.492 85.6678 126.296 84.9636C127.133 84.2594 128.239 83.9073 129.612 83.9073C130.986 83.9073 132.075 84.2594 132.879 84.9636C133.716 85.6678 134.135 86.6235 134.135 87.8307C134.135 89.0379 133.716 89.9936 132.879 90.6978C132.075 91.402 130.986 91.7541 129.612 91.7541Z" fill="white"/>
<path d="M149.392 124.298C146.612 124.298 144.4 123.544 142.759 122.035C141.151 120.526 140.347 118.48 140.347 115.898C140.347 113.115 141.301 110.985 143.211 109.51C145.154 108.001 147.935 107.246 151.553 107.246H157.282V105.184C157.282 104.111 156.897 103.256 156.126 102.619C155.389 101.982 154.384 101.663 153.111 101.663C151.938 101.663 150.967 101.931 150.196 102.468C149.426 103.004 148.957 103.742 148.789 104.681H141.503C141.804 101.898 143.01 99.7015 145.121 98.0919C147.265 96.4487 150.012 95.6272 153.362 95.6272C156.88 95.6272 159.661 96.499 161.704 98.2428C163.781 99.953 164.82 102.267 164.82 105.184V123.795H157.533V119.268H156.327L157.583 117.508C157.583 119.587 156.83 121.247 155.322 122.487C153.848 123.695 151.871 124.298 149.392 124.298ZM152.206 118.765C153.68 118.765 154.886 118.379 155.825 117.608C156.796 116.803 157.282 115.764 157.282 114.49V111.522H151.704C150.565 111.522 149.643 111.857 148.94 112.528C148.236 113.165 147.885 114.02 147.885 115.093C147.885 116.233 148.27 117.139 149.04 117.809C149.811 118.447 150.866 118.765 152.206 118.765Z" fill="white"/>
<path d="M168.117 123.795V96.1302H174.047V100.154H175.253L174.298 100.858C174.298 99.2823 174.75 98.0248 175.655 97.0859C176.559 96.1134 177.682 95.6272 179.022 95.6272C180.462 95.6272 181.585 96.2475 182.389 97.4883C183.193 98.729 183.595 100.372 183.595 102.418L182.69 100.154H184.097L183.645 100.858C183.645 99.2823 184.08 98.0248 184.952 97.0859C185.823 96.1134 186.995 95.6272 188.469 95.6272C190.144 95.6272 191.501 96.2643 192.54 97.5386C193.578 98.7793 194.098 100.489 194.098 102.669V123.795H187.615V103.172C187.615 102.401 187.447 101.814 187.112 101.412C186.777 100.976 186.292 100.758 185.655 100.758C185.019 100.758 184.533 100.976 184.198 101.412C183.863 101.814 183.695 102.401 183.695 103.172V123.795H178.519V103.172C178.519 102.401 178.352 101.814 178.017 101.412C177.682 100.976 177.196 100.758 176.559 100.758C175.923 100.758 175.437 100.976 175.102 101.412C174.767 101.814 174.599 102.401 174.599 103.172V123.795H168.117Z" fill="white"/>
<path d="M113.344 171.316V151.053H117.115V153.779H117.892L117.263 154.442C117.263 153.312 117.583 152.404 118.224 151.716C118.865 151.028 119.691 150.684 120.702 150.684C121.786 150.684 122.624 151.126 123.216 152.011C123.832 152.895 124.14 154.086 124.14 155.584L123.327 153.779H124.584L124.103 154.442C124.103 153.312 124.424 152.404 125.064 151.716C125.705 151.028 126.556 150.684 127.616 150.684C128.873 150.684 129.871 151.151 130.61 152.084C131.35 153.018 131.72 154.282 131.72 155.879V171.316H127.653V156.063C127.653 155.4 127.505 154.884 127.209 154.516C126.913 154.123 126.482 153.926 125.915 153.926C125.373 153.926 124.941 154.111 124.621 154.479C124.325 154.847 124.177 155.375 124.177 156.063V171.316H120.849V156.063C120.849 155.375 120.702 154.847 120.406 154.479C120.11 154.111 119.679 153.926 119.112 153.926C118.545 153.926 118.113 154.111 117.818 154.479C117.546 154.847 117.411 155.375 117.411 156.063V171.316H113.344Z" fill="#96A4CA"/>
<path d="M140.949 171.684C138.853 171.684 137.202 171.132 135.994 170.026C134.786 168.921 134.182 167.435 134.182 165.568C134.182 163.579 134.848 162.044 136.179 160.963C137.51 159.882 139.396 159.342 141.836 159.342H146.901V157.611C146.901 156.628 146.581 155.867 145.94 155.326C145.299 154.761 144.424 154.479 143.315 154.479C142.304 154.479 141.466 154.7 140.801 155.142C140.135 155.584 139.741 156.186 139.618 156.947H135.107C135.329 155.032 136.191 153.509 137.695 152.379C139.199 151.249 141.121 150.684 143.463 150.684C145.952 150.684 147.912 151.311 149.342 152.563C150.796 153.791 151.523 155.461 151.523 157.574V171.316H147.049V167.779H146.31L147.049 166.784C147.049 168.282 146.495 169.474 145.385 170.358C144.276 171.242 142.797 171.684 140.949 171.684ZM142.465 168.221C143.771 168.221 144.831 167.889 145.644 167.226C146.482 166.563 146.901 165.704 146.901 164.647V162.179H141.91C140.973 162.179 140.221 162.449 139.655 162.989C139.088 163.53 138.804 164.242 138.804 165.126C138.804 166.084 139.125 166.846 139.765 167.411C140.431 167.951 141.331 168.221 142.465 168.221Z" fill="#96A4CA"/>
<path d="M162.157 171.684C160.136 171.684 158.497 170.984 157.24 169.584C156.007 168.184 155.391 166.305 155.391 163.947V158.458C155.391 156.075 156.007 154.184 157.24 152.784C158.472 151.384 160.111 150.684 162.157 150.684C163.833 150.684 165.164 151.163 166.15 152.121C167.136 153.054 167.629 154.344 167.629 155.989L166.594 154.921H167.666L167.518 150.095V144.421H172.14V171.316H167.629V167.447H166.594L167.629 166.379C167.629 168.025 167.136 169.326 166.15 170.284C165.164 171.218 163.833 171.684 162.157 171.684ZM163.784 167.705C164.967 167.705 165.879 167.361 166.52 166.674C167.186 165.961 167.518 164.979 167.518 163.726V158.642C167.518 157.389 167.186 156.419 166.52 155.732C165.879 155.019 164.967 154.663 163.784 154.663C162.601 154.663 161.676 155.007 161.011 155.695C160.345 156.382 160.013 157.365 160.013 158.642V163.726C160.013 165.004 160.345 165.986 161.011 166.674C161.676 167.361 162.601 167.705 163.784 167.705Z" fill="#96A4CA"/>
<path d="M176.969 171.316V151.053H181.332V154.921H182.478L181.11 157.279C181.11 155.093 181.603 153.447 182.589 152.342C183.575 151.237 185.029 150.684 186.952 150.684C189.146 150.684 190.871 151.36 192.128 152.711C193.385 154.061 194.014 155.928 194.014 158.311V159.784H189.17V158.642C189.17 157.34 188.825 156.333 188.135 155.621C187.47 154.909 186.545 154.553 185.362 154.553C184.154 154.553 183.218 154.909 182.552 155.621C181.911 156.333 181.591 157.34 181.591 158.642V171.316H176.969Z" fill="#96A4CA"/>
<path d="M196.994 171.316V167.116H204.093V155.216H197.919V151.053H208.53V167.116H214.816V171.316H196.994ZM205.942 147.663C205.005 147.663 204.266 147.43 203.724 146.963C203.181 146.472 202.91 145.821 202.91 145.011C202.91 144.2 203.181 143.561 203.724 143.095C204.266 142.604 205.005 142.358 205.942 142.358C206.879 142.358 207.618 142.604 208.16 143.095C208.703 143.561 208.974 144.2 208.974 145.011C208.974 145.821 208.703 146.472 208.16 146.963C207.618 147.43 206.879 147.663 205.942 147.663Z" fill="#96A4CA"/>
<path d="M224.23 171.684C222.208 171.684 220.569 170.984 219.312 169.584C218.08 168.184 217.463 166.305 217.463 163.947V158.458C217.463 156.075 218.08 154.184 219.312 152.784C220.545 151.384 222.184 150.684 224.23 150.684C225.906 150.684 227.237 151.163 228.223 152.121C229.209 153.054 229.702 154.344 229.702 155.989L228.666 154.921H229.739L229.591 150.095V144.421H234.212V171.316H229.702V167.447H228.666L229.702 166.379C229.702 168.025 229.209 169.326 228.223 170.284C227.237 171.218 225.906 171.684 224.23 171.684ZM225.856 167.705C227.04 167.705 227.952 167.361 228.592 166.674C229.258 165.961 229.591 164.979 229.591 163.726V158.642C229.591 157.389 229.258 156.419 228.592 155.732C227.952 155.019 227.04 154.663 225.856 154.663C224.673 154.663 223.749 155.007 223.083 155.695C222.418 156.382 222.085 157.365 222.085 158.642V163.726C222.085 165.004 222.418 165.986 223.083 166.674C223.749 167.361 224.673 167.705 225.856 167.705Z" fill="#96A4CA"/>
</svg>
