<svg width="40" height="40" viewBox="0 0 40 40" fill="none" xmlns="http://www.w3.org/2000/svg">
<g clip-path="url(#clip0_1005_777)">
<rect width="40" height="40" fill="#FFC83C"/>
<path d="M40 0H0V39.1042H40V0Z" fill="#FFC83C"/>
<path d="M28.2317 10.1157C28.2317 8.86018 27.0391 7.83838 25.7836 7.83838C24.528 7.83838 23.4096 8.86018 23.4096 10.1157L23.4068 14.2225C23.0177 13.9776 22.56 13.8334 22.0673 13.8334C21.2554 13.8334 20.536 14.2183 20.0755 14.8132C19.6192 14.1707 18.8703 13.7508 18.0221 13.7508C17.5266 13.7508 17.0647 13.8964 16.6755 14.1441V12.61C16.6755 11.3545 15.4844 10.2305 14.2288 10.2305C12.9733 10.2305 11.6953 11.3545 11.6953 12.61V22.3927C11.6953 22.4977 11.7037 22.5999 11.7107 22.6545L11.7079 22.7735C11.7079 27.4542 15.1736 31.2628 19.8543 31.2628C27.0503 31.2628 28.2989 24.6995 28.2989 19.8256L28.2345 10.1143L28.2317 10.1157Z" fill="white"/>
<path d="M28.2317 10.1157C28.2317 8.86018 27.0391 7.83838 25.7836 7.83838C24.528 7.83838 23.4096 8.86018 23.4096 10.1157L23.4068 14.2225C23.0177 13.9776 22.56 13.8334 22.0673 13.8334C21.2554 13.8334 20.536 14.2183 20.0755 14.8132C19.6192 14.1707 18.8703 13.7508 18.0221 13.7508C17.5266 13.7508 17.0647 13.8964 16.6755 14.1441V12.61C16.6755 11.3545 15.4844 10.2305 14.2288 10.2305C12.9733 10.2305 11.6953 11.3545 11.6953 12.61V22.3927C11.6953 22.4977 11.7037 22.5999 11.7107 22.6545L11.7079 22.7735C11.7079 27.4542 15.1736 31.2628 19.8543 31.2628C27.0503 31.2628 28.2989 24.6995 28.2989 19.8256L28.2345 10.1143L28.2317 10.1157ZM20.7306 16.3543C20.7306 15.6167 21.3296 15.0176 22.0673 15.0176C22.8049 15.0176 23.404 15.6167 23.404 16.3543V17.8408H21.6292C21.3128 17.8408 21.0105 17.9052 20.7306 18.0172V16.3543ZM16.6839 16.2717C16.6839 15.5341 17.283 14.935 18.0207 14.935C18.7583 14.935 19.3574 15.5341 19.3574 16.2717V18.1936C19.3574 18.9312 18.7569 19.5303 18.0207 19.5303C17.2844 19.5303 16.6839 18.9312 16.6839 18.1936V16.2717ZM26.9047 23.0198C26.9047 23.0198 26.9047 23.0268 26.9047 23.0296C26.6836 24.5175 26.2973 25.7871 25.7416 26.8173C24.5546 29.0218 22.6286 30.0926 19.8515 30.0926C15.9449 30.0926 12.8823 26.8845 12.8753 22.7875L12.8781 22.6825V22.5845L12.8683 22.5019C12.8669 22.4865 12.8627 22.4389 12.8627 22.3927V12.61C12.8627 12.0334 13.5765 11.4007 14.226 11.4007C14.8755 11.4007 15.5026 12.0222 15.5026 12.61V16.2143C15.5026 16.2339 15.4998 16.2521 15.4998 16.2717V18.1936C15.4998 19.5863 16.628 20.7145 18.0207 20.7145C18.477 20.7145 18.9011 20.5899 19.2706 20.3771C19.2706 20.3715 19.2706 20.3659 19.2706 20.3603C19.3196 20.8502 19.5212 21.3164 19.8557 21.6845C20.1889 22.0498 20.6298 22.2962 21.1071 22.3927C20.1315 23.1612 19.6038 24.26 19.6038 25.6037C19.6038 25.9271 19.8655 26.1888 20.1889 26.1888C20.5122 26.1888 20.7739 25.9271 20.7739 25.6037C20.7739 23.3418 22.7728 22.6559 23.9639 22.4487C24.5434 22.3479 24.5336 21.8944 24.5252 21.8049C24.521 21.7503 24.4622 21.2674 23.8729 21.2674H21.5536C21.2373 21.2674 20.9321 21.133 20.7194 20.8978C20.5024 20.6599 20.4016 20.3505 20.4324 20.0272C20.487 19.4575 21.0119 19.0124 21.6278 19.0124H24.4174C24.4552 19.0194 24.4944 19.0236 24.535 19.0236C25.3706 19.0236 25.9977 19.2616 26.398 19.7305C26.9621 20.3897 27.1371 21.5277 26.9033 23.0198H26.9047ZM24.7044 17.859C24.6666 17.8492 24.6274 17.845 24.5868 17.8436V16.3543C24.5868 16.3081 24.5826 16.2633 24.5798 16.2185V10.1157C24.5798 9.53625 25.1537 9.00995 25.7836 9.00995C26.4134 9.00995 27.0601 9.54745 27.0601 10.1241L27.1175 18.7926C26.5254 18.2048 25.715 17.8926 24.703 17.8604L24.7044 17.859Z" fill="black"/>
</g>
<defs>
<clipPath id="clip0_1005_777">
<rect width="40" height="40" fill="white"/>
</clipPath>
</defs>
</svg>
